# xmcd
#
# Track frame offsets: 
#        150
#        15206
#        30283
#        47803
#        65876
#        80914
#        98710
#        111476
#        127353
#        147585
#        162740
#
# Disc length: 2370 seconds
#
# Revision: 0
# Processed by: cddbd v1.5.1PL2 Copyright (c) Steve Scherf et al.
# Submitted via: ExactAudioCopy v0.95b1
#
DISCID=a309400b
DTITLE=George Hetherington - Rythm of the Soul
DYEAR=2006
DGENRE=Easy Listening
TTITLE0=Don't Close The Door On Me
TTITLE1=Angel At My Side
TTITLE2=It's Like Heaven
TTITLE3=You Tell Me And I Tell You
TTITLE4=Why I'm Walkin' In The Rain
TTITLE5=Let Her Sing All She Needs To
TTITLE6=I Went Out On A Carousel
TTITLE7=My Blues Bring Out A Song In Me
TTITLE8=The Way I Sing My Song
TTITLE9=Story Books In Heaven
TTITLE10=Wellington
EXTD=
EXTT0=
EXTT1=
EXTT2=
EXTT3=
EXTT4=
EXTT5=
EXTT6=
EXTT7=
EXTT8=
EXTT9=
EXTT10=
PLAYORDER=
